<svg width="24" height="24" viewBox="0 0 24 24" fill="none" xmlns="http://www.w3.org/2000/svg">
<path fill-rule="evenodd" clip-rule="evenodd" d="M13.2282 16.8403L8.61286 12.6865C8.41835 12.5114 8.30723 12.262 8.30723 12.0004C8.30723 11.7387 8.41835 11.4893 8.61286 11.3143L13.2282 7.16042C13.6071 6.81942 14.1908 6.85015 14.5319 7.22905C14.8729 7.60799 14.8421 8.1916 14.4632 8.53264L10.6102 12.0003L14.4632 15.4681C14.8421 15.8091 14.8729 16.3927 14.5319 16.7718C14.3496 16.9742 14.098 17.0772 13.8454 17.0772C13.6254 17.0772 13.4046 16.9991 13.2282 16.8403V16.8403ZM1.84574 12.0004C1.84574 17.5992 6.40073 22.1542 11.9996 22.1542C17.5984 22.1542 22.1534 17.5992 22.1534 12.0004C22.1534 6.40152 17.5984 1.84653 11.9996 1.84653C6.40074 1.84653 1.84574 6.40152 1.84574 12.0004ZM-0.000427246 12.0004C-0.000427246 5.38361 5.38273 0.000488281 11.9996 0.000488281C18.6164 0.000488281 23.9996 5.38361 23.9996 12.0004C23.9996 18.6172 18.6164 24.0004 11.9996 24.0004C5.38273 24.0004 -0.000427246 18.6172 -0.000427246 12.0004Z" fill="white"/>
</svg>
